<svg xmlns="http://www.w3.org/2000/svg" viewBox="0 0 512 512">
    <rect width="512" height="512" rx="100" fill="#0ea5e9"/>
    <g transform="translate(256, 256) scale(0.65) translate(-256, -256)">
        <path fill="#ffffff" d="M368,144H144c-26.5,0-48,21.5-48,48v192c0,26.5,21.5,48,48,48h224c26.5,0,48-21.5,48-48V192C416,165.5,394.5,144,368,144z M176,176h48v16h-48V176z M160,400c-8.8,0-16-7.2-16-16s7.2-16,16-16s16,7.2,16,16S168.8,400,160,400z M256,368c-44.1,0-80-35.9-80-80s35.9-80,80-80s80,35.9,80,80S300.1,368,256,368z M352,400c-8.8,0-16-7.2-16-16s7.2-16,16-16s16,7.2,16,16S360.8,400,352,400z"/>
        <circle fill="#ffffff" cx="256" cy="288" r="48"/>
        <rect fill="#ffffff" x="256" y="176" width="48" height="16"/>
        <path fill="#ffffff" d="M144,48h224c26.5,0,48,21.5,48,48v16H96V96C96,69.5,117.5,48,144,48z"/>
    </g>
</svg>
